# xmcd CD database file
#
# Track frame offsets:
#	150
#	17882
#	31957
#	43652
#	53585
#	77307
#	94757
#	118310
#	133570
#	153742
#	175190
#	193575
#	205035
#	220450
#	243027
#
# Disc length: 3395 seconds
#
# Revision: 0
# Processed by: cddbd v1.5.1PL0 Copyright (c) Steve Scherf et al.
# Submitted via: CDex 1.50Beta7
#
DISCID=c50d410f
DTITLE=Eddie Condon - The Town Hall Concerts Volume 3 [CD2/2)
DYEAR=1944
DGENRE=Jazz
TTITLE0=Swing That Music
TTITLE1=Avalon
TTITLE2=Between The Devil And The Deep Blue Sea
TTITLE3=The Sneakaway
TTITLE4=Big Boy
TTITLE5=I Ain't Gonna Give Nobody None Of My Jelly Roll
TTITLE6=I'm Coming Virginia
TTITLE7=Ensemble Blues
TTITLE8=I Got Rhythm
TTITLE9=Someone To Watch Over Me
TTITLE10=Oh, Lady Be Good
TTITLE11=Summertime
TTITLE12=I've Got A Crush On You
TTITLE13=Soon
TTITLE14=Sweet And Lowdown
EXTD=YEAR: 1944
EXTT0=
EXTT1=
EXTT2=
EXTT3=
EXTT4=
EXTT5=
EXTT6=
EXTT7=
EXTT8=
EXTT9=
EXTT10=
EXTT11=
EXTT12=
EXTT13=
EXTT14=
PLAYORDER=
